REM MD5 d782615e767af936bd275113538dfb0f
FILE "Player Manager 2000 (Europe).bin" BINARY
  TRACK 01 MODE2/2352
    INDEX 01 00:00:00
  TRACK 02 AUDIO
    INDEX 00 05:21:66
    INDEX 01 05:23:66
  TRACK 03 AUDIO
    INDEX 00 05:32:64
    INDEX 01 05:34:64
  TRACK 04 AUDIO
    INDEX 00 06:29:73
    INDEX 01 06:31:73
  TRACK 05 AUDIO
    INDEX 00 09:05:26
    INDEX 01 09:07:26
REM LEADOUT 10:07:26
